<?xml version="1.0" encoding="UTF-8" standalone="no"?>
<svg xmlns="http://www.w3.org/2000/svg" xmlns:xlink="http://www.w3.org/1999/xlink" width="1200" height="800" viewBox="0 0 1200 800">
  <title>Art Gallery Background</title>
  <defs>
    <linearGradient id="ceiling-gradient" x1="0%" y1="0%" x2="0%" y2="100%">
      <stop offset="0%" style="stop-color:#1a1a1a;stop-opacity:1" />
      <stop offset="100%" style="stop-color:#2a2a2a;stop-opacity:1" />
    </linearGradient>
    <linearGradient id="floor-gradient" x1="0%" y1="0%" x2="0%" y2="100%">
      <stop offset="0%" style="stop-color:#d5c7b8;stop-opacity:1" />
      <stop offset="100%" style="stop-color:#c2b5a6;stop-opacity:1" />
    </linearGradient>
    <linearGradient id="wall-color" x1="0%" y1="0%" x2="0%" y2="100%">
      <stop offset="0%" style="stop-color:#d8cfc3;stop-opacity:1" />
      <stop offset="100%" style="stop-color:#cec5b9;stop-opacity:1" />
    </linearGradient>
    <filter id="lighting" x="-50%" y="-50%" width="200%" height="200%">
      <feGaussianBlur in="SourceGraphic" stdDeviation="10" />
    </filter>
    <filter id="soft-light" x="-50%" y="-50%" width="200%" height="200%">
      <feGaussianBlur in="SourceGraphic" stdDeviation="20" />
    </filter>
    <linearGradient id="painting1" x1="0%" y1="0%" x2="0%" y2="100%">
      <stop offset="0%" style="stop-color:#7a9ab0;stop-opacity:1" />
      <stop offset="100%" style="stop-color:#5d7c8e;stop-opacity:1" />
    </linearGradient>
    <linearGradient id="painting2" x1="0%" y1="0%" x2="0%" y2="100%">
      <stop offset="0%" style="stop-color:#d98e53;stop-opacity:1" />
      <stop offset="100%" style="stop-color:#b06937;stop-opacity:1" />
    </linearGradient>
    <linearGradient id="painting3" x1="0%" y1="0%" x2="0%" y2="100%">
      <stop offset="0%" style="stop-color:#8aa88c;stop-opacity:1" />
      <stop offset="100%" style="stop-color:#6b8a6d;stop-opacity:1" />
    </linearGradient>
    <linearGradient id="painting4" x1="0%" y1="0%" x2="0%" y2="100%">
      <stop offset="0%" style="stop-color:#e8a76c;stop-opacity:1" />
      <stop offset="100%" style="stop-color:#d18c4a;stop-opacity:1" />
    </linearGradient>
    <linearGradient id="curtain-gradient" x1="0%" y1="0%" x2="100%" y2="0%">
      <stop offset="0%" style="stop-color:#8a7a6a;stop-opacity:1" />
      <stop offset="50%" style="stop-color:#9e8c7c;stop-opacity:1" />
      <stop offset="100%" style="stop-color:#8a7a6a;stop-opacity:1" />
    </linearGradient>
  </defs>
  
  <!-- Ceiling -->
  <rect x="0" y="0" width="1200" height="150" fill="url(#ceiling-gradient)" />
  
  <!-- Track lighting structure -->
  <rect x="100" y="20" width="1000" height="8" fill="#333333" />
  
  <!-- Track lights -->
  <circle cx="200" cy="25" r="5" fill="#ffffff" />
  <circle cx="200" cy="25" r="15" fill="#ffffff" opacity="0.6" filter="url(#lighting)" />
  
  <circle cx="400" cy="25" r="5" fill="#ffffff" />
  <circle cx="400" cy="25" r="15" fill="#ffffff" opacity="0.6" filter="url(#lighting)" />
  
  <circle cx="600" cy="25" r="5" fill="#ffffff" />
  <circle cx="600" cy="25" r="15" fill="#ffffff" opacity="0.6" filter="url(#lighting)" />
  
  <circle cx="800" cy="25" r="5" fill="#ffffff" />
  <circle cx="800" cy="25" r="15" fill="#ffffff" opacity="0.6" filter="url(#lighting)" />
  
  <circle cx="1000" cy="25" r="5" fill="#ffffff" />
  <circle cx="1000" cy="25" r="15" fill="#ffffff" opacity="0.6" filter="url(#lighting)" />
  
  <!-- Walls -->
  <rect x="0" y="150" width="1200" height="450" fill="url(#wall-color)" />
  
  <!-- Side walls -->
  <rect x="0" y="150" width="250" height="450" fill="url(#wall-color)" />
  <rect x="950" y="150" width="250" height="450" fill="url(#wall-color)" />
  
  <!-- Center wall -->
  <rect x="350" y="150" width="500" height="450" fill="url(#wall-color)" />
  
  <!-- Floor -->
  <rect x="0" y="600" width="1200" height="200" fill="url(#floor-gradient)" />
  <rect x="0" y="600" width="1200" height="2" fill="#b8a99a" />
  
  <!-- Side curtains -->
  <rect x="250" y="150" width="40" height="450" fill="url(#curtain-gradient)" />
  <rect x="910" y="150" width="40" height="450" fill="url(#curtain-gradient)" />
  
  <!-- Left wall paintings -->
  <rect x="50" y="250" width="150" height="200" rx="5" ry="5" fill="url(#painting1)" stroke="#b88a50" stroke-width="10" />
  
  <!-- Left side table -->
  <rect x="120" y="470" width="60" height="40" fill="#5e3a22" />
  <rect x="125" y="510" width="50" height="5" fill="#4a2e1b" />
  <rect x="130" y="515" width="40" height="85" fill="#5e3a22" />
  
  <!-- Center wall painting -->
  <rect x="500" y="200" width="200" height="300" rx="5" ry="5" fill="url(#painting2)" stroke="#b88a50" stroke-width="15" />
  
  <!-- Right wall paintings -->
  <rect x="750" y="250" width="150" height="200" rx="5" ry="5" fill="url(#painting3)" stroke="#b88a50" stroke-width="10" />
  <rect x="1000" y="250" width="150" height="200" rx="5" ry="5" fill="url(#painting4)" stroke="#b88a50" stroke-width="10" />
  
  <!-- Bench -->
  <rect x="500" y="650" width="200" height="30" rx="5" ry="5" fill="#333333" />
  <rect x="500" y="650" width="200" height="5" rx="2" ry="2" fill="#444444" />
  
  <!-- Lighting effects on paintings -->
  <circle cx="125" cy="350" r="100" fill="#ffffff" opacity="0.15" filter="url(#soft-light)" />
  <circle cx="600" cy="350" r="150" fill="#ffffff" opacity="0.15" filter="url(#soft-light)" />
  <circle cx="825" cy="350" r="100" fill="#ffffff" opacity="0.15" filter="url(#soft-light)" />
  <circle cx="1075" cy="350" r="100" fill="#ffffff" opacity="0.15" filter="url(#soft-light)" />
  
  <!-- Floor reflections -->
  <rect x="50" y="600" width="150" height="30" fill="#ffffff" opacity="0.05" />
  <rect x="500" y="600" width="200" height="30" fill="#ffffff" opacity="0.05" />
  <rect x="750" y="600" width="150" height="30" fill="#ffffff" opacity="0.05" />
  <rect x="1000" y="600" width="150" height="30" fill="#ffffff" opacity="0.05" />
  
  <!-- Information cards -->
  <rect x="125" y="460" width="15" height="10" fill="#ffffff" />
  <rect x="600" y="510" width="15" height="10" fill="#ffffff" />
  <rect x="825" y="460" width="15" height="10" fill="#ffffff" />
  <rect x="1075" y="460" width="15" height="10" fill="#ffffff" />
</svg>